<svg width="122" height="152" viewBox="0 0 122 152" fill="none" xmlns="http://www.w3.org/2000/svg">
<g clip-path="url(#clip0_13_2)">
<path d="M107 45.6015C107 57.2247 102.614 67.8332 95.3951 75.8836L91.5483 79.6971L60.9835 110L30.0981 79.3821L30.0696 79.3569L28.8153 78.1105L26.9496 76.2624L26.9241 76.2342C19.5137 68.1392 15 57.3955 15 45.6015C15 20.4149 35.5933 0 61 0C86.4067 0 107 20.4149 107 45.6015Z" fill="white"/>
<path d="M67.0737 40.4212H54.9263C55.0132 39.2773 54.4318 36.9197 56.2585 36.8915H65.7414C67.5652 36.9167 66.9898 39.2833 67.0737 40.4212Z" fill="#292827"/>
<path d="M59.5853 31.23C56.8085 31.181 56.8085 27.0897 59.5853 27.0406C62.3622 27.0897 62.3622 31.181 59.5853 31.23ZM59.6483 27.4477C57.4109 27.4878 57.4109 30.7843 59.6483 30.8229C61.8856 30.7828 61.8856 27.4863 59.6483 27.4477Z" fill="#292827"/>
<path d="M62.4131 31.23C59.6363 31.181 59.6363 27.0897 62.4131 27.0406C65.19 27.0897 65.19 31.181 62.4131 31.23ZM62.4131 27.4477C60.1758 27.4878 60.1758 30.7843 62.4131 30.8229C64.6505 30.7828 64.6505 27.4863 62.4131 27.4477Z" fill="#292827"/>
<path d="M61.3506 29.4249H60.6478V26.895C60.6163 26.8058 61.2787 26.8712 61.3072 26.8519C61.4301 26.843 61.3102 29.3819 61.3506 29.4249Z" fill="#292827"/>
<path d="M61.1184 28.0583H60.8801V21.4326C60.8771 21.3568 61.0345 21.3984 61.0734 21.388C61.2023 21.3761 61.0734 28.0152 61.1184 28.0583Z" fill="#292827"/>
<path d="M54.9263 41.4761H53.4352V39.1868C53.4142 38.7263 54.3988 38.9655 54.646 38.9105C54.8004 38.9105 54.9248 39.0338 54.9248 39.1868V41.4761H54.9263Z" fill="#292827"/>
<path d="M68.5648 41.4761H67.0737V39.1868C67.0527 38.7263 68.0373 38.9655 68.2845 38.9105C68.4389 38.9105 68.5633 39.0338 68.5633 39.1868V41.4761H68.5648Z" fill="#292827"/>
<path d="M36.3006 40.451H29.1779C29.2634 39.3071 28.6849 36.9495 30.5102 36.9213H34.9669C35.7027 36.9213 36.2991 37.5125 36.2991 38.242V40.451H36.3006Z" fill="#292827"/>
<path d="M92.822 40.451H85.6994C85.7848 39.3071 85.2063 36.9495 87.0316 36.9213H91.4883C92.2241 36.9213 92.8205 37.5125 92.8205 38.242V40.451H92.822Z" fill="#292827"/>
<path d="M60.982 29.4249C59.0908 29.3863 57.4214 30.3237 57.4379 31.4825V37.3119H64.5606V31.5449C64.5606 30.3742 62.9661 29.4235 60.982 29.4235V29.4249ZM61 35.9422C57.7346 35.8872 57.7346 31.071 61 31.016C64.2654 31.071 64.2654 35.8872 61 35.9422Z" fill="#292827"/>
<path d="M44.8695 42.5546H43.5327V40.8536C43.5132 40.4406 44.3959 40.6546 44.6192 40.6055C44.7571 40.6055 44.8695 40.7169 44.8695 40.8536V42.5546Z" fill="#292827"/>
<path d="M51.3567 42.5546H50.02V39.9444C50.002 39.5315 50.8832 39.7454 51.1064 39.6963C51.2443 39.6963 51.3567 39.8078 51.3567 39.9444V42.5546Z" fill="#292827"/>
<path d="M79.4608 42.5546H78.1241V40.8536C78.1046 40.4406 78.9873 40.6546 79.2106 40.6055C79.3484 40.6055 79.4608 40.7169 79.4608 40.8536V42.5546Z" fill="#292827"/>
<path d="M72.9721 42.5546H71.6353V39.9444C71.6174 39.5315 72.4985 39.7454 72.7218 39.6963C72.8597 39.6963 72.9721 39.8078 72.9721 39.9444V42.5546Z" fill="#292827"/>
<path d="M37.3227 39.4155H28.1559C27.3332 39.4155 26.6649 40.0766 26.6649 40.8937V60.6876C26.6649 61.5032 27.3317 62.1657 28.1559 62.1657H37.3227C38.1454 62.1657 38.8137 61.5047 38.8137 60.6876V40.8937C38.8137 40.0781 38.1469 39.4155 37.3227 39.4155ZM35.2516 57.4906C35.2516 57.7283 35.0568 57.9214 34.8171 57.9214C28.565 57.8338 30.5461 58.9435 30.2269 52.9418C30.2105 51.4205 31.6776 50.5916 33.0802 50.7892C34.2791 50.7892 35.2516 51.7533 35.2516 52.9418V57.4906ZM35.2516 48.1775C35.2516 48.4152 35.0568 48.6083 34.8171 48.6083C28.565 48.5207 30.5461 49.6304 30.2269 43.6286C30.2105 42.1074 31.6776 41.2784 33.0802 41.476C34.2791 41.476 35.2516 42.4402 35.2516 43.6286V48.1775Z" fill="#292827"/>
<path d="M93.8441 39.4155H84.6774C83.8546 39.4155 83.1863 40.0766 83.1863 40.8937V60.6876C83.1863 61.5032 83.8531 62.1657 84.6774 62.1657H93.8441C94.6668 62.1657 95.3352 61.5047 95.3352 60.6876V40.8937C95.3352 40.0781 94.6683 39.4155 93.8441 39.4155ZM91.7731 57.4906C91.7731 57.7283 91.5783 57.9214 91.3385 57.9214C85.0865 57.8338 87.0676 58.9435 86.7484 52.9418C86.7319 51.4205 88.199 50.5916 89.6016 50.7892C90.8005 50.7892 91.7731 51.7533 91.7731 52.9418V57.4906ZM91.7731 48.1775C91.7731 48.4152 91.5783 48.6083 91.3385 48.6083C85.0865 48.5207 87.0676 49.6304 86.7484 43.6286C86.7319 42.1074 88.199 41.2784 89.6016 41.476C90.8005 41.476 91.7731 42.4402 91.7731 43.6286V48.1775Z" fill="#292827"/>
<path d="M81.9934 44.0327C81.9934 43.2171 81.3266 42.5546 80.5024 42.5546H68.5633C68.4899 41.5488 68.9934 39.4274 67.3779 39.4155H54.6191C53.0097 39.423 53.5027 41.5533 53.4338 42.5546H41.4947C40.672 42.5546 40.0036 43.2156 40.0036 44.0327V60.7782C40.0036 61.5938 40.6705 62.2564 41.4947 62.2564H80.5024C81.3251 62.2564 81.9934 61.5953 81.9934 60.7782V44.0327ZM46.8371 57.3406H43.1371C43.2855 55.7257 42.3848 52.2732 44.9863 52.2257C47.5878 52.2688 46.6887 55.7317 46.8356 57.3406H46.8371ZM46.8371 49.8354H43.1371V44.7205H46.8371V49.8354ZM52.5391 57.3406H48.8391C48.9875 55.7257 48.0869 52.2732 50.6884 52.2257C53.2899 52.2688 52.3908 55.7317 52.5376 57.3406H52.5391ZM52.5391 49.8354H48.8391V44.7205H52.5391V49.8354ZM59.951 57.4906C59.951 57.7283 59.7562 57.9214 59.5164 57.9214C53.2644 57.8338 55.2455 58.9435 54.9263 52.9418C54.9098 51.4205 56.3769 50.5916 57.7796 50.7892C58.9785 50.7892 59.951 51.7533 59.951 52.9418V57.4906ZM59.951 48.1775C59.951 48.4152 59.7562 48.6083 59.5164 48.6083C53.2644 48.5207 55.2455 49.6304 54.9263 43.6286C54.9098 42.1074 56.3769 41.2784 57.7796 41.476C58.9785 41.476 59.951 42.4402 59.951 43.6286V48.1775ZM67.0737 57.4906C67.0737 57.7283 66.8789 57.9214 66.6391 57.9214C60.3871 57.8338 62.3682 58.9435 62.049 52.9418C62.0325 51.4205 63.4996 50.5916 64.9023 50.7892C66.1011 50.7892 67.0737 51.7533 67.0737 52.9418V57.4906ZM67.0737 48.1775C67.0737 48.4152 66.8789 48.6083 66.6391 48.6083C60.3871 48.5207 62.3682 49.6304 62.049 43.6286C62.0325 42.1074 63.4996 41.2784 64.9023 41.476C66.1011 41.476 67.0737 42.4402 67.0737 43.6286V48.1775ZM74.1544 57.2975H70.4545C70.6028 55.6841 69.7022 52.2302 72.3037 52.1826C74.9052 52.2257 74.0061 55.6886 74.1529 57.2975H74.1544ZM74.1544 49.8354H70.4545V44.7205H74.1544V49.8354ZM79.855 57.3406H76.155C76.3034 55.7257 75.4027 52.2732 78.0043 52.2257C80.6058 52.2688 79.7066 55.7317 79.8535 57.3406H79.855ZM79.855 49.8354H76.155V44.7205H79.855V49.8354Z" fill="#292827"/>
<path d="M61.2773 33.4792C61.2833 33.8357 60.7168 33.8357 60.7213 33.4792C60.7153 33.1227 61.2818 33.1227 61.2773 33.4792Z" fill="#292827"/>
<path d="M61.2773 30.9952C61.2548 31.3354 61.4091 31.6652 60.8951 31.5984C60.6254 31.6073 60.7468 31.1453 60.7213 30.9952H61.2773Z" fill="#292827"/>
<path d="M60.7228 35.9645C60.7452 35.6243 60.5909 35.2945 61.1049 35.3614C61.3746 35.3524 61.2533 35.8145 61.2787 35.9645H60.7228Z" fill="#292827"/>
<path d="M58.4944 33.2044C58.8376 33.2266 59.1702 33.0736 59.1028 33.5832C59.1118 33.8506 58.6457 33.7302 58.4944 33.7555V33.2044Z" fill="#292827"/>
<path d="M63.5056 33.7554C63.1624 33.7331 62.8298 33.8862 62.8972 33.3766C62.8882 33.1092 63.3543 33.2295 63.5056 33.2043V33.7554Z" fill="#292827"/>
<path d="M61.1888 32.1941H60.8097V33.4791H61.1888V32.1941Z" fill="#292827"/>
<path d="M62.2963 33.292H61V33.6678H62.2963V33.292Z" fill="#292827"/>
</g>
<path d="M10.24 126.92V149H8.128V126.92H10.24ZM17.6 126.92V128.776H0.8V126.92H17.6ZM31.375 133.48V149H29.519V137.864C29.519 137.544 29.519 137.235 29.519 136.936C29.5403 136.616 29.5617 136.285 29.583 135.944H29.519C29.391 136.2 29.231 136.477 29.039 136.776C28.847 137.075 28.6657 137.341 28.495 137.576L19.759 149H18.063V133.48H19.951V144.584C19.951 144.904 19.9403 145.224 19.919 145.544C19.919 145.864 19.9083 146.205 19.887 146.568H19.919C20.0897 146.269 20.271 145.971 20.463 145.672C20.655 145.373 20.847 145.117 21.039 144.904L29.711 133.48H31.375ZM53.8058 133.48C54.3604 133.48 54.6378 133.757 54.6378 134.312L55.3418 149H53.4538L52.7818 135.08H52.2058L47.5978 146.728C47.5338 146.941 47.4378 147.112 47.3098 147.24C47.1818 147.347 47.0004 147.4 46.7658 147.4H45.0058C44.7711 147.4 44.5898 147.347 44.4618 147.24C44.3338 147.112 44.2378 146.941 44.1738 146.728L39.5658 135.08H38.9898L38.3498 149H36.4618L37.1658 134.312C37.1658 133.757 37.4431 133.48 37.9978 133.48H40.2378C40.4724 133.48 40.6538 133.544 40.7818 133.672C40.9098 133.779 40.9951 133.949 41.0378 134.184L44.8458 143.816C44.9951 144.2 45.1338 144.573 45.2618 144.936C45.3898 145.277 45.5071 145.64 45.6138 146.024H46.1578C46.2858 145.64 46.4138 145.267 46.5418 144.904C46.6698 144.541 46.7978 144.179 46.9258 143.816L50.7018 134.184C50.8511 133.715 51.1391 133.48 51.5658 133.48H53.8058ZM81.1748 126.92C81.7721 126.92 82.0708 127.229 82.0708 127.848L83.0308 149H80.9188L80.0548 128.68H79.3508L73.5908 145.992C73.4628 146.461 73.1534 146.696 72.6628 146.696H70.5508C70.0601 146.696 69.7401 146.461 69.5908 145.992L63.8628 128.68H63.1588L62.3268 149H60.2148L61.1108 127.848C61.1534 127.229 61.4734 126.92 62.0708 126.92H64.5988C65.0681 126.92 65.3668 127.165 65.4948 127.656L70.3268 142.056C70.5188 142.547 70.6788 143.048 70.8068 143.56C70.9561 144.051 71.1161 144.552 71.2868 145.064H71.9588C72.1081 144.552 72.2574 144.051 72.4068 143.56C72.5561 143.048 72.7161 142.525 72.8868 141.992L77.7188 127.656C77.8468 127.165 78.1561 126.92 78.6468 126.92H81.1748ZM95.4833 133.096C96.5499 133.096 97.4459 133.256 98.1713 133.576C98.9179 133.875 99.4833 134.376 99.8673 135.08C100.251 135.763 100.443 136.691 100.443 137.864V149H98.8433L98.5233 145.608L98.3953 145.32V137.864C98.3953 136.883 98.1713 136.136 97.7233 135.624C97.2753 135.112 96.4006 134.856 95.0993 134.856C94.1606 134.856 93.0726 134.899 91.8353 134.984C90.5979 135.069 89.3926 135.176 88.2193 135.304L88.0273 133.8C88.7313 133.672 89.4886 133.565 90.2993 133.48C91.1313 133.373 91.9846 133.288 92.8593 133.224C93.7339 133.139 94.6086 133.096 95.4833 133.096ZM99.3873 139.528L99.3553 141.064L91.7713 141.128C90.9606 141.149 90.3633 141.373 89.9793 141.8C89.6166 142.205 89.4353 142.781 89.4353 143.528V144.872C89.4353 145.747 89.6593 146.397 90.1073 146.824C90.5553 147.251 91.2273 147.464 92.1233 147.464C92.8059 147.485 93.5633 147.368 94.3953 147.112C95.2273 146.856 96.0379 146.483 96.8273 145.992C97.6379 145.501 98.3526 144.925 98.9713 144.264V145.832C98.7366 146.152 98.3739 146.504 97.8833 146.888C97.4139 147.272 96.8593 147.645 96.2193 148.008C95.6006 148.371 94.9073 148.669 94.1393 148.904C93.3926 149.139 92.6139 149.256 91.8033 149.256C90.9073 149.256 90.1179 149.096 89.4353 148.776C88.7739 148.456 88.2619 147.987 87.8993 147.368C87.5579 146.728 87.3873 145.96 87.3873 145.064V143.272C87.3873 142.077 87.7393 141.16 88.4433 140.52C89.1686 139.859 90.1819 139.528 91.4833 139.528H99.3873ZM118.615 133.48V149H116.599V133.48H118.615ZM107.703 133.48V149H105.719V133.48H107.703ZM116.887 133.48L116.855 135.144H107.543V133.48H116.887Z" fill="white"/>
<defs>
<clipPath id="clip0_13_2">
<rect width="92" height="110" fill="white" transform="translate(15)"/>
</clipPath>
</defs>
</svg>
