<svg width="1923" height="1098" viewBox="0 0 1923 1098" fill="none" xmlns="http://www.w3.org/2000/svg">
<path d="M692.033 513.567H1230.4V582.8H692.033V513.567Z" fill="#529A54"/>
<path d="M692.033 467.067H766.433V513.567H692.033V467.067Z" fill="#529A54"/>
<path d="M69.9667 489.8H144.367V582.8H69.9667V489.8Z" fill="#529A54"/>
<path d="M1852.47 489.8H1778.07V582.8H1852.47V489.8Z" fill="#529A54"/>
<path d="M357.233 489.8H392.367V582.8H357.233V489.8Z" fill="#529A54"/>
<path d="M1565.2 489.8H1530.07V582.8H1565.2V489.8Z" fill="#529A54"/>
<path d="M480.2 564.2C480.2 548.791 492.691 536.3 508.1 536.3C523.509 536.3 536 548.791 536 564.2V582.8H480.2V564.2Z" fill="#529A54"/>
<path d="M193.967 564.2C193.967 548.791 206.458 536.3 221.867 536.3C237.275 536.3 249.767 548.791 249.767 564.2V582.8H193.967V564.2Z" fill="#529A54"/>
<path d="M1386.43 564.2C1386.43 548.791 1398.92 536.3 1414.33 536.3C1429.74 536.3 1442.23 548.791 1442.23 564.2V582.8H1386.43V564.2Z" fill="#529A54"/>
<path d="M1672.67 564.2C1672.67 548.791 1685.16 536.3 1700.57 536.3C1715.98 536.3 1728.47 548.791 1728.47 564.2V582.8H1672.67V564.2Z" fill="#529A54"/>
<path d="M1230.4 467.067H1156V513.567H1230.4V467.067Z" fill="#529A54"/>
<path d="M784 488.767C784 483.06 788.626 478.433 794.333 478.433H874.933V513.567H784V488.767Z" fill="#529A54"/>
<path d="M803.633 478.433C803.633 466.449 813.349 456.733 825.333 456.733H874.933V478.433H803.633Z" fill="#529A54"/>
<path d="M1138.43 488.767C1138.43 483.06 1133.81 478.433 1128.1 478.433H1047.5V513.567H1138.43V488.767Z" fill="#529A54"/>
<path d="M1118.8 478.433C1118.8 466.449 1109.08 456.733 1097.1 456.733H1047.5V478.433H1118.8Z" fill="#529A54"/>
<path d="M847.683 376.252C847.612 375.638 848.092 375.1 848.709 375.1H909.344C909.901 375.1 910.358 375.542 910.377 376.099L912.098 427.766C912.117 428.349 911.649 428.833 911.065 428.833H875.283C875.056 428.833 874.836 428.759 874.655 428.621L857.556 415.545C857.431 415.45 857.33 415.327 857.26 415.186L850.731 402.129C850.677 402.022 850.643 401.905 850.629 401.786L847.683 376.252Z" fill="#529A54"/>
<path d="M1074.75 376.252C1074.82 375.638 1074.34 375.1 1073.72 375.1H1013.09C1012.53 375.1 1012.08 375.542 1012.06 376.099L1010.34 427.766C1010.32 428.349 1010.78 428.833 1011.37 428.833H1047.15C1047.38 428.833 1047.6 428.759 1047.78 428.621L1064.88 415.545C1065 415.45 1065.1 415.327 1065.17 415.186L1071.7 402.129C1071.76 402.022 1071.79 401.905 1071.8 401.786L1074.75 376.252Z" fill="#529A54"/>
<path d="M961.733 161.717C961.733 178.552 948.085 192.2 931.25 192.2C914.415 192.2 900.767 178.552 900.767 161.717C900.767 144.881 914.415 131.233 931.25 131.233C948.085 131.233 961.733 144.881 961.733 161.717Z" fill="#529A54"/>
<path d="M1022.7 161.717C1022.7 178.552 1009.05 192.2 992.217 192.2C975.381 192.2 961.733 178.552 961.733 161.717C961.733 144.881 975.381 131.233 992.217 131.233C1009.05 131.233 1022.7 144.881 1022.7 161.717Z" fill="#529A54"/>
<path d="M954.5 135.367H970V161.2H954.5V135.367Z" fill="#529A54"/>
<path d="M958.633 0H965.867V135.367H958.633V0Z" fill="#529A54"/>
<path fill-rule="evenodd" clip-rule="evenodd" d="M985.5 150.867C1019.74 150.867 1047.5 178.625 1047.5 212.867V513.567H874.933V212.867C874.933 178.625 902.692 150.867 936.933 150.867H985.5ZM961.217 192.2C927.831 192.2 900.767 219.264 900.767 252.65C900.767 286.036 927.831 313.1 961.217 313.1C994.602 313.1 1021.67 286.036 1021.67 252.65C1021.67 219.264 994.602 192.2 961.217 192.2Z" fill="#529A54"/>
<path d="M967.933 253.167C967.933 256.591 965.157 259.367 961.733 259.367C958.309 259.367 955.533 256.591 955.533 253.167C955.533 249.742 958.309 246.967 961.733 246.967C965.157 246.967 967.933 249.742 967.933 253.167Z" fill="#529A54"/>
<path d="M958.633 192.2H964.833V208.733H958.633V192.2Z" fill="#529A54"/>
<path d="M958.633 296.567H964.833V313.1H958.633V296.567Z" fill="#529A54"/>
<path d="M900.767 256.267V250.067H917.3V256.267H900.767Z" fill="#529A54"/>
<path d="M1005.13 256.267V250.067H1021.67V256.267H1005.13Z" fill="#529A54"/>
<path d="M916.494 210.636L918.686 208.444L925.262 215.02L923.07 217.212L916.494 210.636Z" fill="#529A54"/>
<path d="M996.138 290.28L998.33 288.088L1004.91 294.664L1002.71 296.856L996.138 290.28Z" fill="#529A54"/>
<path d="M918.686 296.856L916.494 294.664L923.07 288.088L925.262 290.28L918.686 296.856Z" fill="#529A54"/>
<path d="M998.33 217.212L996.138 215.02L1002.71 208.444L1004.91 210.636L998.33 217.212Z" fill="#529A54"/>
<path d="M938.938 309.622L936.072 308.442L939.61 299.842L942.477 301.021L938.938 309.622Z" fill="#529A54"/>
<path d="M981.79 205.458L978.923 204.279L982.462 195.678L985.328 196.858L981.79 205.458Z" fill="#529A54"/>
<path d="M938.938 309.622L936.072 308.442L939.61 299.842L942.477 301.021L938.938 309.622Z" fill="#529A54"/>
<path d="M981.79 205.458L978.923 204.279L982.462 195.678L985.328 196.858L981.79 205.458Z" fill="#529A54"/>
<path d="M982.462 309.622L985.328 308.442L981.79 299.842L978.923 301.021L982.462 309.622Z" fill="#529A54"/>
<path d="M939.61 205.458L942.477 204.279L938.938 195.678L936.072 196.858L939.61 205.458Z" fill="#529A54"/>
<path d="M1016.37 277.547L1017.57 274.686L1008.98 271.107L1007.79 273.968L1016.37 277.547Z" fill="#529A54"/>
<path d="M912.417 234.193L913.61 231.332L905.027 227.753L903.834 230.614L912.417 234.193Z" fill="#529A54"/>
<path d="M905.027 277.547L903.834 274.686L912.417 271.107L913.61 273.968L905.027 277.547Z" fill="#529A54"/>
<path d="M1008.98 234.193L1007.79 231.332L1016.37 227.753L1017.57 230.614L1008.98 234.193Z" fill="#529A54"/>
<path d="M961.733 252.133H999.967V254.2H961.733V252.133Z" fill="#529A54"/>
<path d="M959.667 257.3V230.433H963.8V257.3H959.667Z" fill="#529A54"/>
<path fill-rule="evenodd" clip-rule="evenodd" d="M1894.17 582.8C1908.43 582.8 1920 594.366 1920 608.633V1098H0L2.6226e-06 608.633C1.27424e-05 594.366 11.566 582.8 25.8333 582.8H1894.17ZM963.8 907.267C940.972 907.267 922.467 925.772 922.467 948.6V1098H1016.5V948.6C1016.5 925.772 997.994 907.267 975.167 907.267H963.8ZM798.467 907.267C781.346 907.267 767.467 921.146 767.467 938.267V1071.57H848.067V938.267C848.067 921.146 834.188 907.267 817.067 907.267H798.467ZM1122.93 907.267C1105.81 907.267 1091.93 921.146 1091.93 938.267V1071.57H1172.53V938.267C1172.53 921.146 1158.65 907.267 1141.53 907.267H1122.93ZM28.6333 923.8C11.5125 923.8 2.16297e-06 937.679 2.16297e-06 954.8V1056.07H61.7V954.8C61.7 937.679 47.8208 923.8 30.7 923.8H28.6333ZM175.367 923.8C158.246 923.8 144.367 937.679 144.367 954.8V1056.07H208.433V954.8C208.433 937.679 194.554 923.8 177.433 923.8H175.367ZM322.1 923.8C304.979 923.8 291.1 937.679 291.1 954.8V1056.07H355.167V954.8C355.167 937.679 341.287 923.8 324.167 923.8H322.1ZM468.833 923.8C451.712 923.8 437.833 937.679 437.833 954.8V1056.07H501.9V954.8C501.9 937.679 488.021 923.8 470.9 923.8H468.833ZM615.567 923.8C598.446 923.8 584.567 937.679 584.567 954.8V1056.07H648.633V954.8C648.633 937.679 634.754 923.8 617.633 923.8H615.567ZM1322.37 923.8C1305.25 923.8 1291.37 937.679 1291.37 954.8V1056.07H1355.43V954.8C1355.43 937.679 1341.55 923.8 1324.43 923.8H1322.37ZM1469.1 923.8C1451.98 923.8 1438.1 937.679 1438.1 954.8V1056.07H1502.17V954.8C1502.17 937.679 1488.29 923.8 1471.17 923.8H1469.1ZM1615.83 923.8C1598.71 923.8 1584.83 937.679 1584.83 954.8V1056.07H1648.9V954.8C1648.9 937.679 1635.02 923.8 1617.9 923.8H1615.83ZM1762.57 923.8C1745.45 923.8 1731.57 937.679 1731.57 954.8V1056.07H1795.63V954.8C1795.63 937.679 1781.75 923.8 1764.63 923.8H1762.57ZM1909.3 923.8C1892.18 923.8 1878.3 937.679 1878.3 954.8V1056.07H1920V954.8C1920 937.679 1928.49 923.8 1911.37 923.8H1909.3ZM2.16297e-06 826.667H61.7V694.4H2.16297e-06V826.667ZM144.367 826.667H208.433V694.4H144.367V826.667ZM291.1 826.667H355.167V694.4H291.1V826.667ZM437.833 826.667H501.9V694.4H437.833V826.667ZM584.567 826.667H648.633V694.4H584.567V826.667ZM1291.37 826.667H1355.43V694.4H1291.37V826.667ZM1438.1 826.667H1502.17V694.4H1438.1V826.667ZM1584.83 826.667H1648.9V694.4H1584.83V826.667ZM1731.57 826.667H1795.63V694.4H1731.57V826.667ZM1878.3 826.667H1920V694.4H1878.3V826.667ZM798.467 645.833C781.346 645.833 767.467 659.712 767.467 676.833V810.133H848.067V676.833C848.067 659.712 834.188 645.833 817.067 645.833H798.467ZM960.7 645.833C943.579 645.833 929.7 659.712 929.7 676.833V810.133H1010.3V676.833C1010.3 659.712 996.421 645.833 979.3 645.833H960.7ZM1122.93 645.833C1105.81 645.833 1091.93 659.712 1091.93 676.833V810.133H1172.53V676.833C1172.53 659.712 1158.65 645.833 1141.53 645.833H1122.93Z" fill="#529A54"/>
</svg>
